<svg id="logo" viewBox="0 0 320 100" xml:space="preserve" style="width: 100%;">
	<path fill="none" stroke="#FFFD00" stroke-miterlimit="10" d="M55.917,50.227c2.073,1.173,3.754,2.806,5.045,4.897
		c1.291,2.093,1.936,4.43,1.936,7.011c0,2.464-0.607,4.742-1.818,6.834c-1.213,2.093-2.866,3.745-4.957,4.957
		c-2.093,1.213-4.371,1.818-6.834,1.818h-8.623V51.751h-4.869l1.936-3.285h2.933V35.854h10.618c2.19,0,4.057,0.772,5.603,2.317
		c1.544,1.545,2.317,3.432,2.317,5.661C59.202,46.53,58.107,48.662,55.917,50.227z M43.891,48.525h7.392
		c1.408,0,2.542-0.479,3.402-1.438c0.86-0.958,1.291-2.043,1.291-3.255c0-1.408-0.46-2.552-1.378-3.432
		c-0.919-0.88-2.024-1.32-3.314-1.32h-7.392V48.525z M43.891,51.751v20.767h5.397c2.972,0,5.446-1.035,7.421-3.109
		c1.975-2.072,2.962-4.496,2.962-7.273c0-1.995-0.479-3.773-1.437-5.339c-0.959-1.563-2.239-2.795-3.842-3.695
		c-1.604-0.899-3.306-1.35-5.104-1.35H43.891z" class="bFqKYkEi_0" style="fill:#FFED00"></path>
	<path fill="none" stroke="#95C11F" stroke-miterlimit="10" d="M77.328,51.107c3.52,0,6.512,1.231,8.976,3.695S90,60.257,90,63.777
		c0,3.441-1.232,6.414-3.696,8.916c-2.464,2.504-5.456,3.755-8.976,3.755c-3.441,0-6.414-1.251-8.917-3.755
		c-2.503-2.502-3.754-5.475-3.754-8.916c0-3.521,1.251-6.512,3.754-8.976C70.914,52.338,73.887,51.107,77.328,51.107z
		 M77.328,54.332c-2.66,0-4.898,0.909-6.717,2.729c-1.818,1.818-2.728,4.058-2.728,6.717c0,2.659,0.909,4.898,2.728,6.717
		c1.819,1.818,4.057,2.728,6.717,2.728c2.62,0,4.849-0.918,6.688-2.757c1.838-1.838,2.757-4.067,2.757-6.687
		c0-2.62-0.919-4.849-2.757-6.688C82.177,55.252,79.948,54.332,77.328,54.332z" class="bFqKYkEi_1" style="fill:#95C11F"></path>
	<path fill="none" stroke="#662483" stroke-miterlimit="10" d="M92.639,75.744V51.751l2.757,2.229
		c1.838-1.916,4.106-2.874,6.805-2.874c2.699,0,4.966,0.919,6.805,2.757c1.838,1.839,2.757,4.106,2.757,6.805v15.076h-3.227V60.668
		c0-1.838-0.616-3.353-1.848-4.546s-2.728-1.79-4.488-1.79s-3.256,0.616-4.488,1.849c-1.232,1.231-1.848,2.728-1.848,4.487v15.076
		H92.639z" class="bFqKYkEi_2" style="fill:#951B81"></path>
	<path fill="none" stroke="#36A9E1" stroke-miterlimit="10" d="M104.665,86.948c1.173,1.291,2.679,1.937,4.517,1.937
		c1.643,0,3.07-0.567,4.282-1.701c1.212-1.135,1.818-2.602,1.818-4.4V51.751h3.227v31.032c0,2.582-0.909,4.781-2.728,6.6
		c-1.818,1.818-4.018,2.729-6.599,2.729c-2.816,0-5.142-1.037-6.981-3.109L104.665,86.948z M115.282,42.365h3.227v3.227h-3.227
		V42.365z" class="bFqKYkEi_3" style="fill:#36A9E1"></path>
	<path fill="none" stroke="#29235C" stroke-miterlimit="10" d="M133.819,51.107c3.52,0,6.512,1.231,8.975,3.695
		c2.465,2.464,3.695,5.455,3.695,8.976c0,3.441-1.23,6.414-3.695,8.916c-2.463,2.504-5.455,3.755-8.975,3.755
		c-3.441,0-6.414-1.251-8.916-3.755c-2.504-2.502-3.755-5.475-3.755-8.916c0-3.521,1.251-6.512,3.755-8.976
		C127.405,52.338,130.378,51.107,133.819,51.107z M133.819,54.332c-2.66,0-4.898,0.909-6.717,2.729
		c-1.818,1.818-2.729,4.058-2.729,6.717c0,2.659,0.91,4.898,2.729,6.717s4.057,2.728,6.717,2.728c2.619,0,4.848-0.918,6.688-2.757
		c1.838-1.838,2.758-4.067,2.758-6.687c0-2.62-0.92-4.849-2.758-6.688C138.667,55.252,136.439,54.332,133.819,54.332z" class="bFqKYkEi_4" style="fill:#32286A"></path>
	<path fill="none" stroke="#E6007E" stroke-miterlimit="10" d="M168.254,51.751v23.993l-2.757-2.229
		c-1.839,1.917-4.106,2.875-6.805,2.875c-2.699,0-4.968-0.919-6.806-2.758c-1.838-1.837-2.757-4.105-2.757-6.805V51.751h3.227
		v15.076c0,1.76,0.635,3.256,1.906,4.488c1.271,1.231,2.747,1.848,4.43,1.848c1.837,0,3.353-0.636,4.546-1.906
		c1.192-1.271,1.789-2.747,1.789-4.43V51.751H168.254z" class="bFqKYkEi_5" style="fill:#E6007E"></path>
	<path fill="none" stroke="#E94E1B" stroke-miterlimit="10" d="M184.327,51.692l-1.467,2.875c-0.469-0.156-1.036-0.235-1.701-0.235
		c-1.799,0-3.275,0.607-4.429,1.819c-1.154,1.212-1.73,2.659-1.73,4.341v15.252h-3.227V51.751l2.698,2.171
		c1.799-1.877,4.028-2.815,6.688-2.815C182.333,51.107,183.389,51.302,184.327,51.692z" class="bFqKYkEi_6" style="fill:#E94E1B"></path>
	<path fill="none" stroke="#F6F6F6" stroke-miterlimit="10" d="M217.651,68.951c-1.578,2.589-3.608,4.659-6.09,6.209
			c-2.482,1.55-5.17,2.325-8.063,2.325c-3.188,0-6.106-0.932-8.752-2.795c-2.646-1.863-4.751-4.385-6.312-7.563
			c-1.562-3.178-2.343-6.67-2.343-10.476c0-2.785,0.444-5.453,1.332-8.004c0.888-2.55,2.145-4.797,3.771-6.739
			c1.628-1.942,3.501-3.433,5.622-4.473c2.12-1.039,4.347-1.56,6.681-1.56c2.893,0,5.572,0.756,8.038,2.266
			c2.465,1.511,4.487,3.601,6.064,6.268l-2.169,1.825c-0.822-1.373-1.874-2.619-3.156-3.737s-2.655-1.961-4.117-2.531
			c-1.463-0.568-3.017-0.854-4.66-0.854c-2.63,0-5.078,0.775-7.347,2.325c-2.269,1.551-4.061,3.699-5.375,6.445
			c-1.315,2.747-1.972,5.67-1.972,8.769c0,3.178,0.656,6.121,1.972,8.828c1.314,2.708,3.106,4.846,5.375,6.415
			c2.269,1.57,4.717,2.354,7.347,2.354c2.433,0,4.692-0.647,6.78-1.942c2.087-1.295,3.805-3.04,5.153-5.238L217.651,68.951z" class="bFqKYkEi_7" style="fill:#FFFFFF"></path>
	<path fill="none" stroke="#F6F6F6" stroke-miterlimit="10" d="M237.424,73.483c-2.138,2.629-4.701,3.943-7.692,3.943
			c-2.894,0-5.392-1.255-7.495-3.767c-2.104-2.51-3.156-5.493-3.156-8.946c0-3.531,1.052-6.533,3.156-9.004
			c2.104-2.472,4.602-3.708,7.495-3.708c2.991,0,5.555,1.315,7.692,3.943l2.958-3.296V76.72L237.424,73.483z M229.732,55.238
			c-2.236,0-4.117,0.913-5.646,2.737c-1.528,1.825-2.292,4.071-2.292,6.739c0,2.669,0.764,4.915,2.292,6.739
			c1.529,1.825,3.41,2.737,5.646,2.737c2.202,0,4.075-0.921,5.621-2.766c1.545-1.844,2.317-4.08,2.317-6.709
			c0-2.628-0.772-4.865-2.317-6.709C233.807,56.16,231.934,55.238,229.732,55.238z" class="bFqKYkEi_8" style="fill:#FFFFFF"></path>
	<path fill="none" stroke="#F6F6F6" stroke-miterlimit="10" d="M253.892,52.589l-1.232,2.884c-0.395-0.156-0.871-0.235-1.43-0.235
			c-1.513,0-2.754,0.609-3.724,1.825c-0.97,1.217-1.454,2.668-1.454,4.355V76.72h-2.712V52.649l2.268,2.178
			c1.512-1.883,3.386-2.825,5.622-2.825C252.216,52.001,253.103,52.198,253.892,52.589z" class="bFqKYkEi_9" style="fill:#FFFFFF"></path>
	<path fill="none" stroke="#F6F6F6" stroke-miterlimit="10" d="M266.023,52.001c3.155,0,5.802,1.413,7.938,4.237v-19.54h2.712
			V76.72l-2.958-3.237c-2.138,2.629-4.701,3.943-7.692,3.943c-2.894,0-5.392-1.255-7.495-3.767c-2.104-2.51-3.156-5.493-3.156-8.946
			c0-3.531,1.052-6.533,3.156-9.004C260.631,53.237,263.13,52.001,266.023,52.001z M266.023,55.238
			c-2.236,0-4.117,0.913-5.646,2.737c-1.528,1.825-2.292,4.071-2.292,6.739c0,2.669,0.764,4.915,2.292,6.739
			c1.529,1.825,3.41,2.737,5.646,2.737c2.202,0,4.075-0.921,5.621-2.766c1.545-1.844,2.317-4.08,2.317-6.709
			c0-2.628-0.772-4.865-2.317-6.709C270.098,56.16,268.225,55.238,266.023,55.238z" class="bFqKYkEi_10" style="fill:#FFFFFF"></path>
</svg>